<svg xmlns="http://www.w3.org/2000/svg" width="64.29" height="65.959" viewBox="0 0 64.29 65.959"><path d="M61.382 54.891a5.48 5.48 0 0 1-.355 7.952l-2.336 2.018a4.513 4.513 0 0 1-6.12-.2c-6.662-6.572-14.087-13.71-21.587-20.902-6.704 6.434-13.291 12.781-19.266 18.675a4.513 4.513 0 0 1-6.12.2l-2.335-2.018a5.48 5.48 0 0 1-.355-7.951 4103 4103 0 0 0 17.91-18.662c-6.771-6.507-13.343-12.867-19.19-18.69a5.527 5.527 0 0 1-.394-7.397l2.947-3.64a5.53 5.53 0 0 1 8.253-.382c5.218 5.341 11.751 12.151 18.647 19.363 7.67-8.027 15.023-15.701 20.775-21.59a5.53 5.53 0 0 1 8.253.382l2.947 3.64a5.527 5.527 0 0 1-.394 7.399c-6.486 6.456-13.858 13.573-21.407 20.82 7.158 7.494 14.206 14.867 20.127 20.983" fill="#c12d2d"/></svg>