<svg xmlns="http://www.w3.org/2000/svg" width="77.204" height="77.204" viewBox="0 0 77.204 77.204"><defs><linearGradient x1="212.703" y1="152.703" x2="267.296" y2="207.296" gradientUnits="userSpaceOnUse" id="a"><stop offset="0" stop-color="#00994f"/><stop offset="1" stop-color="#007899"/></linearGradient><linearGradient x1="215.893" y1="155.893" x2="264.106" y2="204.106" gradientUnits="userSpaceOnUse" id="b"><stop offset="0" stop-color="#00ff84"/><stop offset="1" stop-color="#00c9ff"/></linearGradient></defs><g stroke-miterlimit="10"><path d="M212.704 207.296c-15.076-15.075-15.076-39.517 0-54.592 15.074-15.075 39.516-15.075 54.591 0s15.075 39.517 0 54.592-39.517 15.075-54.592 0" fill="url(#a)" transform="translate(-201.397 -141.397)"/><path d="M215.894 204.106c-13.314-13.314-13.314-34.898 0-48.212 13.312-13.314 34.897-13.313 48.211 0s13.313 34.898 0 48.212-34.898 13.313-48.212 0" fill="url(#b)" transform="translate(-201.397 -141.397)"/><path d="M57.727 38.053a1.164 1.164 0 0 1 1.162 1.163V49.79c0 4.15-3.375 7.534-7.534 7.534H25.85c-4.15 0-7.534-3.375-7.534-7.534V39.044a1.16 1.16 0 0 1 1.163-1.162 1.16 1.16 0 0 1 1.162 1.162V49.79a5.216 5.216 0 0 0 5.21 5.21h25.504a5.216 5.216 0 0 0 5.21-5.21V39.216a1.16 1.16 0 0 1 1.162-1.162" fill="#fff" stroke="#fff" stroke-width="5" stroke-linejoin="round"/><path d="M29.553 28.071c-.761-.186-1.082-1.546-.548-2.08l8.641-8.64c.251-.263.594-.404.957-.404.352 0 .705.151.956.403l8.642 8.641c.533.534-.17 1.307-.739 1.924-.69.75-7.5.013-7.5.013v16.117a1.354 1.354 0 0 1-1.36 1.36 1.354 1.354 0 0 1-1.359-1.36V28.007s-6.928.25-7.69.064" fill="#fff" stroke="#fff" stroke-width="4" stroke-linecap="round" stroke-linejoin="round"/></g></svg>
