<svg xmlns="http://www.w3.org/2000/svg" width="76.046" height="71.413" viewBox="0 0 76.046 71.413"><path d="M75.019 11.833C61.811 30.37 48.12 49.453 34.902 68.003c-.6.841-1.337 1.58-2.209 2.136-3.272 2.087-7.73 1.615-10.467-1.444-6.864-7.674-14.558-16.714-21.195-24.013-1.896-2.085-1.067-5.424 1.583-6.384 2.596-.942 5.924-1.96 9.52-2.584a3.96 3.96 0 0 1 3.923 1.63 558 558 0 0 0 11.367 15.698Q44.936 27.713 62.452 2.386a5.528 5.528 0 0 1 8.2-1.008l3.516 3.094a5.53 5.53 0 0 1 .851 7.36" fill="#79b540"/></svg>