<svg xmlns="http://www.w3.org/2000/svg" width="228.373" height="258.871" viewBox="0 0 228.373 258.871"><path d="M103.981 18.622c5.811 5.811 5.811 15.233 0 21.043L87.584 56.063a5.605 5.605 0 0 1-7.925 0 5.603 5.603 0 0 1 0-7.925l10.55-10.55c-40.742 10.58-70.825 47.598-70.825 91.65 0 46.218 33.115 84.695 76.91 93.016v17.142C43.126 230.881 2.5 184.808 2.5 129.238c0-53.132 37.143-97.58 86.879-108.82l-9.994-9.993a5.603 5.603 0 0 1 0-7.925l.273-.274a5.605 5.605 0 0 1 7.926 0zm20.411 221.625c-5.81-5.81-5.81-15.232 0-21.043l16.397-16.397a5.603 5.603 0 0 1 7.926 0 5.603 5.603 0 0 1 0 7.925l-10.55 10.55c40.741-10.58 70.824-47.598 70.824-91.65 0-46.218-33.116-84.695-76.912-93.016V19.475c53.17 8.514 93.795 54.588 93.795 110.157 0 53.133-37.143 97.58-86.879 108.82l9.995 9.993a5.605 5.605 0 0 1 0 7.925l-.274.274a5.603 5.603 0 0 1-7.926 0z" fill="#66ffb8" stroke="#66ffb8" stroke-width="5" stroke-miterlimit="10"/></svg>